<svg xmlns="http://www.w3.org/2000/svg" xmlns:xlink="http://www.w3.org/1999/xlink" width="500" zoomAndPan="magnify" viewBox="0 0 375 374.999991" height="500" preserveAspectRatio="xMidYMid meet" version="1.0"><defs><g/><clipPath id="d94d11aada"><path d="M 284.683594 131.152344 L 337.933594 131.152344 L 337.933594 221 L 284.683594 221 Z M 284.683594 131.152344 " clip-rule="nonzero"/></clipPath><clipPath id="c61b17470d"><path d="M 47.585938 131.152344 L 100.613281 131.152344 L 100.613281 221 L 47.585938 221 Z M 47.585938 131.152344 " clip-rule="nonzero"/></clipPath></defs><g clip-path="url(#d94d11aada)"><path fill="#ffffff" d="M 333.710938 176.320312 C 333.710938 173.84375 332.609375 171.523438 330.695312 169.957031 L 289.046875 135.839844 C 288.96875 135.777344 288.90625 135.769531 288.816406 135.8125 C 288.722656 135.855469 288.691406 135.90625 288.691406 136.007812 L 288.691406 156.71875 C 288.691406 156.785156 288.71875 156.84375 288.769531 156.886719 L 308.511719 173.058594 C 308.722656 173.230469 308.914062 173.417969 309.085938 173.625 C 309.09375 173.636719 309.105469 173.644531 309.113281 173.652344 L 309.171875 173.714844 C 309.199219 173.746094 309.230469 173.777344 309.261719 173.808594 C 309.285156 173.835938 309.308594 173.859375 309.332031 173.886719 L 309.386719 173.945312 C 309.421875 173.980469 309.453125 174.011719 309.480469 174.046875 C 309.503906 174.070312 309.527344 174.097656 309.550781 174.121094 L 309.605469 174.183594 C 309.636719 174.214844 309.667969 174.25 309.699219 174.285156 C 309.722656 174.308594 309.742188 174.332031 309.761719 174.355469 L 309.820312 174.417969 C 309.851562 174.453125 309.882812 174.488281 309.914062 174.523438 C 309.933594 174.546875 309.953125 174.570312 309.976562 174.59375 L 310.03125 174.65625 C 310.0625 174.691406 310.09375 174.730469 310.125 174.765625 C 310.144531 174.789062 310.164062 174.8125 310.183594 174.835938 L 310.234375 174.894531 C 310.265625 174.933594 310.300781 174.96875 310.332031 175.007812 L 310.433594 175.128906 C 310.46875 175.171875 310.503906 175.214844 310.535156 175.253906 C 310.554688 175.273438 310.570312 175.296875 310.585938 175.316406 L 310.628906 175.371094 C 310.667969 175.414062 310.699219 175.457031 310.734375 175.5 L 310.832031 175.621094 C 310.867188 175.664062 310.898438 175.707031 310.933594 175.746094 L 311.019531 175.859375 C 311.054688 175.90625 311.09375 175.953125 311.125 175.996094 L 311.207031 176.105469 C 311.246094 176.152344 311.28125 176.199219 311.316406 176.246094 L 311.394531 176.351562 C 311.433594 176.402344 311.46875 176.449219 311.503906 176.5 L 311.574219 176.597656 C 311.613281 176.648438 311.648438 176.699219 311.6875 176.753906 L 311.753906 176.851562 C 311.792969 176.902344 311.828125 176.953125 311.867188 177.007812 L 311.921875 177.085938 C 311.960938 177.144531 312 177.203125 312.039062 177.261719 L 312.09375 177.34375 C 312.136719 177.402344 312.175781 177.460938 312.214844 177.519531 L 312.261719 177.597656 C 312.304688 177.65625 312.34375 177.71875 312.382812 177.777344 L 312.429688 177.855469 C 312.46875 177.917969 312.507812 177.976562 312.546875 178.039062 L 312.589844 178.105469 C 312.628906 178.171875 312.667969 178.234375 312.710938 178.300781 L 312.75 178.367188 C 312.789062 178.429688 312.828125 178.496094 312.867188 178.5625 L 312.90625 178.625 C 312.945312 178.691406 312.984375 178.757812 313.019531 178.824219 L 313.058594 178.890625 C 313.097656 178.957031 313.132812 179.023438 313.171875 179.089844 L 313.207031 179.152344 C 313.242188 179.21875 313.28125 179.289062 313.320312 179.355469 L 313.347656 179.414062 C 313.386719 179.484375 313.425781 179.554688 313.460938 179.625 L 313.488281 179.675781 C 313.527344 179.75 313.566406 179.820312 313.601562 179.890625 L 313.628906 179.945312 C 313.667969 180.015625 313.703125 180.089844 313.738281 180.160156 L 313.761719 180.210938 C 313.796875 180.285156 313.835938 180.355469 313.871094 180.429688 L 313.894531 180.484375 C 313.929688 180.554688 313.964844 180.628906 314 180.703125 L 314.023438 180.75 C 314.054688 180.824219 314.089844 180.898438 314.125 180.972656 L 314.144531 181.019531 C 314.179688 181.097656 314.210938 181.171875 314.246094 181.246094 L 314.265625 181.292969 C 314.296875 181.367188 314.328125 181.445312 314.363281 181.519531 L 314.378906 181.566406 C 314.410156 181.640625 314.441406 181.71875 314.476562 181.796875 L 314.492188 181.839844 C 314.523438 181.914062 314.554688 181.992188 314.585938 182.070312 L 314.601562 182.109375 C 314.632812 182.191406 314.660156 182.269531 314.691406 182.347656 L 314.707031 182.386719 C 314.734375 182.464844 314.765625 182.546875 314.792969 182.625 L 314.808594 182.667969 C 314.835938 182.746094 314.863281 182.824219 314.890625 182.902344 L 314.90625 182.945312 C 314.933594 183.023438 314.957031 183.101562 314.984375 183.183594 L 315 183.21875 C 315.023438 183.300781 315.050781 183.382812 315.074219 183.460938 L 315.085938 183.496094 C 315.113281 183.578125 315.136719 183.660156 315.164062 183.742188 L 315.171875 183.777344 C 315.195312 183.859375 315.222656 183.941406 315.246094 184.023438 L 315.253906 184.058594 C 315.277344 184.140625 315.300781 184.222656 315.324219 184.304688 L 315.335938 184.34375 C 315.355469 184.421875 315.378906 184.503906 315.398438 184.589844 L 315.410156 184.625 C 315.429688 184.707031 315.449219 184.789062 315.46875 184.871094 L 315.476562 184.898438 C 315.5 184.988281 315.519531 185.070312 315.539062 185.15625 L 315.546875 185.191406 C 315.5625 185.273438 315.582031 185.355469 315.601562 185.4375 L 315.605469 185.46875 C 315.625 185.554688 315.644531 185.640625 315.660156 185.722656 L 315.664062 185.75 C 315.683594 185.839844 315.699219 185.925781 315.714844 186.007812 L 315.71875 186.035156 C 315.734375 186.125 315.75 186.210938 315.765625 186.296875 L 315.769531 186.320312 C 315.785156 186.410156 315.800781 186.496094 315.8125 186.582031 L 315.816406 186.609375 C 315.832031 186.695312 315.84375 186.78125 315.855469 186.867188 L 315.859375 186.894531 C 315.871094 186.980469 315.882812 187.070312 315.894531 187.15625 L 315.898438 187.179688 C 315.910156 187.269531 315.921875 187.355469 315.929688 187.441406 L 315.929688 187.457031 C 315.941406 187.550781 315.953125 187.640625 315.960938 187.730469 L 315.964844 187.746094 C 315.972656 187.839844 315.980469 187.929688 315.988281 188.019531 L 315.992188 188.050781 C 316 188.136719 316.003906 188.222656 316.011719 188.308594 L 316.011719 188.332031 C 316.019531 188.417969 316.023438 188.507812 316.03125 188.59375 L 316.03125 188.621094 C 316.035156 188.707031 316.042969 188.796875 316.042969 188.882812 L 316.046875 188.910156 C 316.050781 189 316.050781 189.085938 316.054688 189.171875 L 316.054688 189.207031 C 316.058594 189.292969 316.058594 189.378906 316.0625 189.460938 L 316.0625 189.507812 C 316.0625 189.585938 316.0625 189.667969 316.0625 189.75 L 316.0625 189.796875 C 316.0625 189.980469 316.0625 190.160156 316.054688 190.332031 C 316.054688 190.351562 316.054688 190.375 316.054688 190.394531 L 316.050781 190.457031 C 316.050781 190.511719 316.046875 190.566406 316.046875 190.621094 C 316.042969 190.714844 316.035156 190.8125 316.03125 190.910156 C 316.019531 191.09375 316.007812 191.285156 315.992188 191.46875 C 315.878906 192.769531 315.644531 194.054688 315.28125 195.308594 L 330.695312 182.683594 C 332.609375 181.117188 333.710938 178.796875 333.710938 176.320312 Z M 308.683594 179.4375 C 308.628906 179.488281 308.570312 179.535156 308.511719 179.582031 L 288.769531 195.757812 C 288.71875 195.800781 288.691406 195.859375 288.691406 195.925781 L 288.691406 216.632812 C 288.691406 216.734375 288.722656 216.789062 288.816406 216.832031 C 288.90625 216.875 288.96875 216.867188 289.046875 216.800781 L 304.621094 204.042969 L 304.644531 204.023438 C 304.699219 203.980469 304.753906 203.933594 304.808594 203.886719 L 304.859375 203.84375 C 304.894531 203.820312 304.925781 203.789062 304.957031 203.761719 L 305.195312 203.558594 C 305.222656 203.535156 305.253906 203.507812 305.28125 203.484375 L 305.34375 203.429688 C 305.390625 203.386719 305.4375 203.34375 305.488281 203.300781 L 305.503906 203.285156 C 309.285156 199.894531 311.527344 195.789062 311.976562 191.421875 C 311.984375 191.34375 311.992188 191.261719 312 191.183594 L 312.003906 191.140625 C 312.015625 190.992188 312.027344 190.835938 312.035156 190.679688 C 312.042969 190.5625 312.050781 190.4375 312.054688 190.296875 L 312.054688 190.25 C 312.058594 190.136719 312.0625 190.011719 312.0625 189.882812 L 312.0625 189.832031 C 312.0625 189.703125 312.0625 189.578125 312.058594 189.460938 L 312.058594 189.421875 C 312.054688 189.15625 312.042969 188.890625 312.023438 188.632812 L 312.023438 188.613281 C 312.011719 188.492188 312.003906 188.363281 311.988281 188.230469 L 311.988281 188.191406 C 311.972656 188.0625 311.960938 187.933594 311.945312 187.808594 L 311.941406 187.777344 C 311.890625 187.378906 311.828125 186.976562 311.75 186.582031 L 311.746094 186.546875 C 311.71875 186.425781 311.691406 186.296875 311.664062 186.167969 L 311.65625 186.136719 C 311.625 186 311.59375 185.871094 311.566406 185.746094 L 311.5625 185.734375 C 311.5 185.476562 311.425781 185.210938 311.347656 184.945312 L 311.335938 184.917969 C 311.300781 184.796875 311.261719 184.667969 311.21875 184.542969 L 311.207031 184.5 C 311.164062 184.371094 311.121094 184.246094 311.078125 184.125 L 311.070312 184.097656 C 310.980469 183.84375 310.882812 183.585938 310.78125 183.328125 L 310.765625 183.296875 C 310.71875 183.183594 310.667969 183.058594 310.613281 182.933594 L 310.59375 182.886719 C 310.539062 182.761719 310.488281 182.640625 310.433594 182.527344 L 310.414062 182.484375 C 310.351562 182.347656 310.296875 182.226562 310.238281 182.113281 L 310.238281 182.105469 C 310.179688 181.988281 310.121094 181.867188 310.050781 181.738281 L 310.035156 181.707031 C 309.976562 181.59375 309.917969 181.476562 309.847656 181.351562 L 309.820312 181.296875 C 309.757812 181.179688 309.691406 181.0625 309.628906 180.953125 L 309.597656 180.898438 C 309.523438 180.769531 309.457031 180.65625 309.394531 180.546875 L 309.375 180.519531 C 309.304688 180.40625 309.234375 180.289062 309.164062 180.171875 L 309.144531 180.144531 C 309.078125 180.039062 309.003906 179.925781 308.925781 179.800781 L 308.886719 179.742188 C 308.820312 179.644531 308.75 179.539062 308.683594 179.4375 Z M 284.691406 216.632812 L 284.691406 195.925781 C 284.691406 194.65625 285.253906 193.464844 286.234375 192.660156 L 305.976562 176.488281 C 306.066406 176.417969 306.082031 176.273438 306.015625 176.1875 L 306.011719 176.1875 C 306.003906 176.175781 305.992188 176.164062 305.980469 176.15625 L 286.234375 159.980469 C 285.253906 159.175781 284.691406 157.984375 284.691406 156.71875 L 284.691406 136.007812 C 284.691406 134.359375 285.613281 132.898438 287.101562 132.195312 C 288.589844 131.488281 290.304688 131.699219 291.582031 132.742188 L 333.230469 166.859375 C 336.078125 169.191406 337.710938 172.640625 337.710938 176.320312 C 337.710938 180 336.078125 183.449219 333.230469 185.78125 L 307.199219 207.105469 C 307.179688 207.117188 307.164062 207.132812 307.148438 207.148438 L 291.582031 219.898438 C 290.304688 220.941406 288.589844 221.152344 287.101562 220.445312 C 285.613281 219.742188 284.691406 218.28125 284.691406 216.632812 " fill-opacity="1" fill-rule="nonzero"/></g><g clip-path="url(#c61b17470d)"><path fill="#ffffff" d="M 51.585938 176.320312 C 51.585938 173.84375 52.683594 171.523438 54.597656 169.957031 L 96.25 135.839844 C 96.324219 135.777344 96.390625 135.769531 96.480469 135.8125 C 96.570312 135.855469 96.605469 135.90625 96.605469 136.007812 L 96.605469 156.71875 C 96.605469 156.785156 96.574219 156.84375 96.523438 156.886719 L 76.78125 173.058594 C 76.570312 173.230469 76.378906 173.417969 76.207031 173.625 C 76.199219 173.636719 76.1875 173.644531 76.179688 173.652344 L 76.121094 173.714844 C 76.09375 173.746094 76.0625 173.777344 76.035156 173.808594 C 76.007812 173.835938 75.984375 173.859375 75.960938 173.886719 L 75.90625 173.945312 C 75.875 173.980469 75.84375 174.011719 75.8125 174.046875 C 75.789062 174.070312 75.765625 174.097656 75.742188 174.121094 L 75.6875 174.183594 C 75.65625 174.214844 75.625 174.25 75.59375 174.285156 C 75.574219 174.308594 75.550781 174.332031 75.53125 174.355469 L 75.472656 174.417969 C 75.441406 174.453125 75.410156 174.488281 75.378906 174.523438 C 75.359375 174.546875 75.339844 174.570312 75.320312 174.59375 L 75.265625 174.65625 C 75.234375 174.691406 75.203125 174.730469 75.167969 174.765625 C 75.148438 174.789062 75.128906 174.8125 75.109375 174.835938 L 75.058594 174.894531 C 75.027344 174.933594 74.996094 174.96875 74.960938 175.007812 L 74.859375 175.128906 C 74.824219 175.171875 74.792969 175.214844 74.757812 175.253906 C 74.742188 175.273438 74.722656 175.296875 74.707031 175.316406 L 74.664062 175.371094 C 74.628906 175.414062 74.59375 175.457031 74.558594 175.5 L 74.460938 175.621094 C 74.425781 175.664062 74.394531 175.707031 74.359375 175.746094 L 74.273438 175.859375 C 74.238281 175.90625 74.203125 175.953125 74.167969 175.996094 L 74.085938 176.105469 C 74.050781 176.152344 74.015625 176.199219 73.976562 176.246094 L 73.898438 176.351562 C 73.863281 176.402344 73.828125 176.449219 73.792969 176.5 L 73.71875 176.597656 C 73.683594 176.648438 73.644531 176.699219 73.609375 176.753906 L 73.539062 176.851562 C 73.503906 176.902344 73.464844 176.953125 73.429688 177.007812 L 73.375 177.085938 C 73.335938 177.144531 73.292969 177.203125 73.253906 177.261719 L 73.199219 177.34375 C 73.160156 177.402344 73.117188 177.460938 73.078125 177.519531 L 73.03125 177.597656 C 72.992188 177.65625 72.949219 177.71875 72.910156 177.777344 L 72.863281 177.855469 C 72.824219 177.917969 72.785156 177.976562 72.746094 178.039062 L 72.707031 178.105469 C 72.664062 178.171875 72.625 178.234375 72.585938 178.300781 L 72.546875 178.367188 C 72.503906 178.429688 72.464844 178.496094 72.425781 178.5625 L 72.390625 178.625 C 72.351562 178.691406 72.3125 178.757812 72.273438 178.824219 L 72.238281 178.890625 C 72.199219 178.957031 72.160156 179.023438 72.121094 179.089844 L 72.089844 179.152344 C 72.050781 179.21875 72.011719 179.289062 71.976562 179.355469 L 71.945312 179.414062 C 71.90625 179.484375 71.867188 179.554688 71.832031 179.625 L 71.804688 179.675781 C 71.765625 179.75 71.726562 179.820312 71.691406 179.890625 L 71.664062 179.945312 C 71.628906 180.015625 71.589844 180.089844 71.554688 180.160156 L 71.53125 180.210938 C 71.496094 180.285156 71.460938 180.355469 71.425781 180.429688 L 71.398438 180.484375 C 71.363281 180.554688 71.328125 180.628906 71.296875 180.703125 L 71.273438 180.75 C 71.238281 180.824219 71.203125 180.898438 71.171875 180.972656 L 71.148438 181.019531 C 71.117188 181.097656 71.082031 181.171875 71.050781 181.246094 L 71.03125 181.292969 C 70.996094 181.367188 70.964844 181.445312 70.933594 181.519531 L 70.914062 181.566406 C 70.882812 181.640625 70.851562 181.71875 70.820312 181.796875 L 70.800781 181.839844 C 70.769531 181.914062 70.738281 181.992188 70.707031 182.070312 L 70.695312 182.109375 C 70.664062 182.191406 70.632812 182.269531 70.605469 182.347656 L 70.589844 182.386719 C 70.558594 182.464844 70.53125 182.546875 70.5 182.625 L 70.488281 182.667969 C 70.457031 182.746094 70.429688 182.824219 70.402344 182.902344 L 70.390625 182.945312 C 70.363281 183.023438 70.335938 183.101562 70.308594 183.183594 L 70.296875 183.21875 C 70.269531 183.300781 70.242188 183.382812 70.21875 183.460938 L 70.207031 183.496094 C 70.179688 183.578125 70.15625 183.660156 70.132812 183.742188 L 70.121094 183.777344 C 70.097656 183.859375 70.074219 183.941406 70.046875 184.023438 L 70.039062 184.058594 C 70.015625 184.140625 69.992188 184.222656 69.96875 184.304688 L 69.960938 184.34375 C 69.9375 184.421875 69.917969 184.503906 69.894531 184.589844 L 69.886719 184.625 C 69.863281 184.707031 69.84375 184.789062 69.824219 184.871094 L 69.816406 184.898438 C 69.796875 184.988281 69.777344 185.070312 69.757812 185.15625 L 69.75 185.191406 C 69.730469 185.273438 69.710938 185.355469 69.695312 185.4375 L 69.6875 185.46875 C 69.667969 185.554688 69.652344 185.640625 69.632812 185.722656 L 69.628906 185.75 C 69.613281 185.839844 69.59375 185.925781 69.578125 186.007812 L 69.574219 186.035156 C 69.558594 186.125 69.542969 186.210938 69.527344 186.296875 L 69.523438 186.320312 C 69.507812 186.410156 69.496094 186.496094 69.480469 186.582031 L 69.476562 186.609375 C 69.464844 186.695312 69.449219 186.78125 69.4375 186.867188 L 69.433594 186.894531 C 69.421875 186.980469 69.410156 187.070312 69.398438 187.15625 L 69.394531 187.179688 C 69.382812 187.269531 69.375 187.355469 69.363281 187.441406 L 69.363281 187.457031 C 69.351562 187.550781 69.339844 187.640625 69.332031 187.730469 L 69.332031 187.746094 C 69.320312 187.839844 69.3125 187.929688 69.304688 188.019531 L 69.304688 188.050781 C 69.296875 188.136719 69.289062 188.222656 69.28125 188.308594 L 69.28125 188.332031 C 69.273438 188.417969 69.269531 188.507812 69.265625 188.59375 L 69.261719 188.621094 C 69.257812 188.707031 69.253906 188.796875 69.25 188.882812 L 69.25 188.910156 C 69.246094 189 69.242188 189.085938 69.238281 189.171875 L 69.238281 189.207031 C 69.234375 189.292969 69.234375 189.378906 69.234375 189.460938 L 69.234375 189.507812 C 69.230469 189.585938 69.230469 189.667969 69.230469 189.75 L 69.230469 189.796875 C 69.230469 189.980469 69.234375 190.160156 69.238281 190.332031 C 69.238281 190.351562 69.238281 190.375 69.242188 190.394531 L 69.242188 190.457031 C 69.246094 190.511719 69.246094 190.566406 69.25 190.621094 C 69.253906 190.714844 69.257812 190.8125 69.261719 190.910156 C 69.273438 191.09375 69.289062 191.285156 69.304688 191.46875 C 69.414062 192.769531 69.652344 194.054688 70.011719 195.308594 L 54.597656 182.683594 C 52.683594 181.117188 51.585938 178.796875 51.585938 176.320312 Z M 76.613281 179.4375 C 76.667969 179.488281 76.722656 179.535156 76.78125 179.582031 L 96.523438 195.757812 C 96.578125 195.800781 96.605469 195.859375 96.605469 195.925781 L 96.605469 216.632812 C 96.605469 216.734375 96.570312 216.789062 96.480469 216.832031 C 96.390625 216.875 96.324219 216.867188 96.25 216.800781 L 80.671875 204.042969 L 80.652344 204.023438 C 80.59375 203.980469 80.539062 203.933594 80.484375 203.886719 L 80.433594 203.84375 C 80.402344 203.820312 80.367188 203.789062 80.335938 203.761719 L 80.097656 203.558594 C 80.070312 203.535156 80.042969 203.507812 80.015625 203.484375 L 79.949219 203.429688 C 79.902344 203.386719 79.855469 203.34375 79.808594 203.300781 L 79.789062 203.285156 C 76.007812 199.894531 73.769531 195.789062 73.316406 191.421875 C 73.308594 191.34375 73.300781 191.261719 73.292969 191.183594 L 73.289062 191.140625 C 73.277344 190.992188 73.265625 190.835938 73.257812 190.679688 C 73.25 190.5625 73.246094 190.4375 73.242188 190.296875 L 73.238281 190.25 C 73.234375 190.136719 73.234375 190.011719 73.230469 189.882812 L 73.230469 189.832031 C 73.230469 189.703125 73.230469 189.578125 73.234375 189.460938 L 73.234375 189.421875 C 73.242188 189.15625 73.253906 188.890625 73.269531 188.632812 L 73.273438 188.613281 C 73.28125 188.492188 73.292969 188.363281 73.304688 188.230469 L 73.308594 188.191406 C 73.320312 188.0625 73.335938 187.933594 73.347656 187.808594 L 73.351562 187.777344 C 73.402344 187.378906 73.464844 186.976562 73.542969 186.582031 L 73.550781 186.546875 C 73.574219 186.425781 73.601562 186.296875 73.628906 186.167969 L 73.636719 186.136719 C 73.667969 186 73.699219 185.871094 73.730469 185.746094 L 73.730469 185.734375 C 73.796875 185.476562 73.871094 185.210938 73.949219 184.945312 L 73.957031 184.917969 C 73.992188 184.796875 74.03125 184.667969 74.074219 184.542969 L 74.085938 184.5 C 74.128906 184.371094 74.171875 184.246094 74.214844 184.125 L 74.222656 184.097656 C 74.3125 183.84375 74.410156 183.585938 74.515625 183.328125 L 74.527344 183.296875 C 74.574219 183.183594 74.625 183.058594 74.679688 182.933594 L 74.699219 182.886719 C 74.753906 182.761719 74.808594 182.640625 74.859375 182.527344 L 74.878906 182.484375 C 74.941406 182.347656 75 182.226562 75.054688 182.113281 L 75.058594 182.105469 C 75.113281 181.988281 75.175781 181.867188 75.242188 181.738281 L 75.257812 181.707031 C 75.316406 181.59375 75.378906 181.476562 75.445312 181.351562 L 75.476562 181.296875 C 75.539062 181.179688 75.601562 181.0625 75.664062 180.953125 L 75.699219 180.898438 C 75.769531 180.769531 75.835938 180.65625 75.902344 180.546875 L 75.917969 180.519531 C 75.988281 180.40625 76.058594 180.289062 76.132812 180.171875 L 76.148438 180.144531 C 76.214844 180.039062 76.289062 179.925781 76.371094 179.800781 L 76.40625 179.742188 C 76.472656 179.644531 76.542969 179.539062 76.613281 179.4375 Z M 100.605469 216.632812 L 100.605469 195.925781 C 100.605469 194.65625 100.042969 193.464844 99.058594 192.660156 L 79.316406 176.488281 C 79.230469 176.417969 79.210938 176.273438 79.28125 176.1875 C 79.292969 176.175781 79.300781 176.164062 79.3125 176.15625 L 99.058594 159.980469 C 100.042969 159.175781 100.605469 157.984375 100.605469 156.71875 L 100.605469 136.007812 C 100.605469 134.359375 99.679688 132.898438 98.191406 132.195312 C 96.703125 131.488281 94.988281 131.699219 93.714844 132.742188 L 52.0625 166.859375 C 49.21875 169.191406 47.585938 172.640625 47.585938 176.320312 C 47.585938 180 49.21875 183.449219 52.0625 185.78125 L 78.097656 207.105469 C 78.113281 207.117188 78.128906 207.132812 78.148438 207.148438 L 93.714844 219.898438 C 94.988281 220.941406 96.703125 221.152344 98.191406 220.445312 C 99.679688 219.742188 100.605469 218.28125 100.605469 216.632812 " fill-opacity="1" fill-rule="nonzero"/></g><g fill="#ffffff" fill-opacity="1"><g transform="translate(119.507876, 188.815022)"><g><path d="M 25.953125 -23.28125 L 15.96875 0 L 9.484375 0 L -0.46875 -23.28125 L 6.65625 -23.28125 L 12.96875 -8.109375 L 19.421875 -23.28125 Z M 25.953125 -23.28125 "/></g></g></g><g fill="#ffffff" fill-opacity="1"><g transform="translate(144.992379, 188.815022)"><g><path d="M 14.078125 0.46875 C 11.609375 0.46875 9.390625 -0.0507812 7.421875 -1.09375 C 5.460938 -2.132812 3.921875 -3.578125 2.796875 -5.421875 C 1.679688 -7.265625 1.125 -9.335938 1.125 -11.640625 C 1.125 -13.953125 1.679688 -16.023438 2.796875 -17.859375 C 3.921875 -19.703125 5.460938 -21.144531 7.421875 -22.1875 C 9.390625 -23.226562 11.609375 -23.75 14.078125 -23.75 C 16.535156 -23.75 18.742188 -23.226562 20.703125 -22.1875 C 22.671875 -21.144531 24.210938 -19.703125 25.328125 -17.859375 C 26.453125 -16.023438 27.015625 -13.953125 27.015625 -11.640625 C 27.015625 -9.335938 26.453125 -7.265625 25.328125 -5.421875 C 24.210938 -3.578125 22.671875 -2.132812 20.703125 -1.09375 C 18.742188 -0.0507812 16.535156 0.46875 14.078125 0.46875 Z M 14.078125 -4.984375 C 15.242188 -4.984375 16.300781 -5.257812 17.25 -5.8125 C 18.207031 -6.375 18.960938 -7.160156 19.515625 -8.171875 C 20.078125 -9.179688 20.359375 -10.335938 20.359375 -11.640625 C 20.359375 -12.953125 20.078125 -14.109375 19.515625 -15.109375 C 18.960938 -16.117188 18.207031 -16.898438 17.25 -17.453125 C 16.300781 -18.015625 15.242188 -18.296875 14.078125 -18.296875 C 12.898438 -18.296875 11.832031 -18.015625 10.875 -17.453125 C 9.925781 -16.898438 9.171875 -16.117188 8.609375 -15.109375 C 8.054688 -14.109375 7.78125 -12.953125 7.78125 -11.640625 C 7.78125 -10.335938 8.054688 -9.179688 8.609375 -8.171875 C 9.171875 -7.160156 9.925781 -6.375 10.875 -5.8125 C 11.832031 -5.257812 12.898438 -4.984375 14.078125 -4.984375 Z M 14.078125 -4.984375 "/></g></g></g><g fill="#ffffff" fill-opacity="1"><g transform="translate(173.138446, 188.815022)"><g><path d="M 12.515625 -6.1875 L 8.921875 -6.1875 L 8.921875 0 L 2.328125 0 L 2.328125 -23.28125 L 12.96875 -23.28125 C 15.082031 -23.28125 16.914062 -22.929688 18.46875 -22.234375 C 20.019531 -21.535156 21.210938 -20.535156 22.046875 -19.234375 C 22.890625 -17.941406 23.3125 -16.421875 23.3125 -14.671875 C 23.3125 -12.984375 22.914062 -11.515625 22.125 -10.265625 C 21.34375 -9.015625 20.222656 -8.03125 18.765625 -7.3125 L 23.78125 0 L 16.734375 0 Z M 16.671875 -14.671875 C 16.671875 -15.753906 16.328125 -16.59375 15.640625 -17.1875 C 14.953125 -17.789062 13.929688 -18.09375 12.578125 -18.09375 L 8.921875 -18.09375 L 8.921875 -11.28125 L 12.578125 -11.28125 C 13.929688 -11.28125 14.953125 -11.570312 15.640625 -12.15625 C 16.328125 -12.75 16.671875 -13.585938 16.671875 -14.671875 Z M 16.671875 -14.671875 "/></g></g></g><g fill="#ffffff" fill-opacity="1"><g transform="translate(197.757936, 188.815022)"><g><path d="M 7.28125 -18.0625 L 0.140625 -18.0625 L 0.140625 -23.28125 L 20.984375 -23.28125 L 20.984375 -18.0625 L 13.875 -18.0625 L 13.875 0 L 7.28125 0 Z M 7.28125 -18.0625 "/></g></g></g><g fill="#ffffff" fill-opacity="1"><g transform="translate(218.884117, 188.815022)"><g><path d="M 21.03125 -5.09375 L 21.03125 0 L 2.328125 0 L 2.328125 -23.28125 L 20.59375 -23.28125 L 20.59375 -18.203125 L 8.84375 -18.203125 L 8.84375 -14.265625 L 19.1875 -14.265625 L 19.1875 -9.34375 L 8.84375 -9.34375 L 8.84375 -5.09375 Z M 21.03125 -5.09375 "/></g></g></g><g fill="#ffffff" fill-opacity="1"><g transform="translate(241.241282, 188.815022)"><g><path d="M 17.03125 0 L 12.203125 -7.21875 L 7.453125 0 L -0.0625 0 L 8.421875 -11.78125 L 0.296875 -23.28125 L 7.71875 -23.28125 L 12.375 -16.5625 L 16.96875 -23.28125 L 24.078125 -23.28125 L 15.96875 -12.046875 L 24.609375 0 Z M 17.03125 0 "/></g></g></g><g fill="#ffffff" fill-opacity="1"><g transform="translate(135.970558, 216.305933)"><g><path d="M 7.9375 0.234375 C 6.582031 0.234375 5.359375 -0.0546875 4.265625 -0.640625 C 3.171875 -1.234375 2.304688 -2.050781 1.671875 -3.09375 C 1.046875 -4.144531 0.734375 -5.332031 0.734375 -6.65625 C 0.734375 -7.96875 1.046875 -9.144531 1.671875 -10.1875 C 2.304688 -11.238281 3.171875 -12.054688 4.265625 -12.640625 C 5.359375 -13.234375 6.59375 -13.53125 7.96875 -13.53125 C 9.113281 -13.53125 10.148438 -13.328125 11.078125 -12.921875 C 12.015625 -12.515625 12.800781 -11.929688 13.4375 -11.171875 L 11.453125 -9.34375 C 10.554688 -10.382812 9.441406 -10.90625 8.109375 -10.90625 C 7.285156 -10.90625 6.550781 -10.722656 5.90625 -10.359375 C 5.257812 -10.003906 4.753906 -9.503906 4.390625 -8.859375 C 4.035156 -8.210938 3.859375 -7.476562 3.859375 -6.65625 C 3.859375 -5.832031 4.035156 -5.097656 4.390625 -4.453125 C 4.753906 -3.804688 5.257812 -3.300781 5.90625 -2.9375 C 6.550781 -2.570312 7.285156 -2.390625 8.109375 -2.390625 C 9.441406 -2.390625 10.554688 -2.914062 11.453125 -3.96875 L 13.4375 -2.140625 C 12.800781 -1.367188 12.015625 -0.78125 11.078125 -0.375 C 10.140625 0.03125 9.09375 0.234375 7.9375 0.234375 Z M 7.9375 0.234375 "/></g></g></g><g fill="#ffffff" fill-opacity="1"><g transform="translate(155.670679, 216.305933)"><g><path d="M 8.015625 0.234375 C 6.640625 0.234375 5.394531 -0.0625 4.28125 -0.65625 C 3.175781 -1.257812 2.304688 -2.082031 1.671875 -3.125 C 1.046875 -4.164062 0.734375 -5.34375 0.734375 -6.65625 C 0.734375 -7.957031 1.046875 -9.128906 1.671875 -10.171875 C 2.304688 -11.210938 3.175781 -12.03125 4.28125 -12.625 C 5.394531 -13.226562 6.640625 -13.53125 8.015625 -13.53125 C 9.398438 -13.53125 10.640625 -13.226562 11.734375 -12.625 C 12.835938 -12.03125 13.707031 -11.210938 14.34375 -10.171875 C 14.976562 -9.128906 15.296875 -7.957031 15.296875 -6.65625 C 15.296875 -5.34375 14.976562 -4.164062 14.34375 -3.125 C 13.707031 -2.082031 12.835938 -1.257812 11.734375 -0.65625 C 10.640625 -0.0625 9.398438 0.234375 8.015625 0.234375 Z M 8.015625 -2.390625 C 8.804688 -2.390625 9.515625 -2.570312 10.140625 -2.9375 C 10.773438 -3.300781 11.269531 -3.804688 11.625 -4.453125 C 11.988281 -5.097656 12.171875 -5.832031 12.171875 -6.65625 C 12.171875 -7.476562 11.988281 -8.210938 11.625 -8.859375 C 11.269531 -9.503906 10.773438 -10.003906 10.140625 -10.359375 C 9.515625 -10.722656 8.804688 -10.90625 8.015625 -10.90625 C 7.234375 -10.90625 6.523438 -10.722656 5.890625 -10.359375 C 5.253906 -10.003906 4.753906 -9.503906 4.390625 -8.859375 C 4.035156 -8.210938 3.859375 -7.476562 3.859375 -6.65625 C 3.859375 -5.832031 4.035156 -5.097656 4.390625 -4.453125 C 4.753906 -3.804688 5.253906 -3.300781 5.890625 -2.9375 C 6.523438 -2.570312 7.234375 -2.390625 8.015625 -2.390625 Z M 8.015625 -2.390625 "/></g></g></g><g fill="#ffffff" fill-opacity="1"><g transform="translate(177.479374, 216.305933)"><g><path d="M 1.578125 -13.296875 L 7.625 -13.296875 C 9.0625 -13.296875 10.332031 -13.019531 11.4375 -12.46875 C 12.550781 -11.914062 13.414062 -11.140625 14.03125 -10.140625 C 14.644531 -9.140625 14.953125 -7.976562 14.953125 -6.65625 C 14.953125 -5.320312 14.644531 -4.15625 14.03125 -3.15625 C 13.414062 -2.15625 12.550781 -1.378906 11.4375 -0.828125 C 10.332031 -0.273438 9.0625 0 7.625 0 L 1.578125 0 Z M 7.46875 -2.53125 C 8.800781 -2.53125 9.863281 -2.898438 10.65625 -3.640625 C 11.445312 -4.378906 11.84375 -5.382812 11.84375 -6.65625 C 11.84375 -7.914062 11.445312 -8.914062 10.65625 -9.65625 C 9.863281 -10.394531 8.800781 -10.765625 7.46875 -10.765625 L 4.65625 -10.765625 L 4.65625 -2.53125 Z M 7.46875 -2.53125 "/></g></g></g><g fill="#ffffff" fill-opacity="1"><g transform="translate(198.946143, 216.305933)"><g><path d="M 11.875 -2.46875 L 11.875 0 L 1.578125 0 L 1.578125 -13.296875 L 11.625 -13.296875 L 11.625 -10.828125 L 4.640625 -10.828125 L 4.640625 -7.9375 L 10.8125 -7.9375 L 10.8125 -5.546875 L 4.640625 -5.546875 L 4.640625 -2.46875 Z M 11.875 -2.46875 "/></g></g></g><g fill="#ffffff" fill-opacity="1"><g transform="translate(217.468507, 216.305933)"><g><path d="M 10.046875 0 L 7.484375 -3.703125 L 4.65625 -3.703125 L 4.65625 0 L 1.578125 0 L 1.578125 -13.296875 L 7.328125 -13.296875 C 8.503906 -13.296875 9.523438 -13.097656 10.390625 -12.703125 C 11.265625 -12.316406 11.9375 -11.757812 12.40625 -11.03125 C 12.875 -10.3125 13.109375 -9.457031 13.109375 -8.46875 C 13.109375 -7.476562 12.867188 -6.625 12.390625 -5.90625 C 11.921875 -5.195312 11.25 -4.65625 10.375 -4.28125 L 13.359375 0 Z M 10 -8.46875 C 10 -9.21875 9.753906 -9.789062 9.265625 -10.1875 C 8.785156 -10.59375 8.082031 -10.796875 7.15625 -10.796875 L 4.65625 -10.796875 L 4.65625 -6.15625 L 7.15625 -6.15625 C 8.082031 -6.15625 8.785156 -6.359375 9.265625 -6.765625 C 9.753906 -7.171875 10 -7.738281 10 -8.46875 Z M 10 -8.46875 "/></g></g></g><g fill="#ffffff" fill-opacity="1"><g transform="translate(237.206623, 216.305933)"><g><path d="M 5.953125 0.234375 C 4.898438 0.234375 3.878906 0.09375 2.890625 -0.1875 C 1.910156 -0.476562 1.125 -0.851562 0.53125 -1.3125 L 1.578125 -3.625 C 2.148438 -3.207031 2.828125 -2.867188 3.609375 -2.609375 C 4.390625 -2.359375 5.175781 -2.234375 5.96875 -2.234375 C 6.84375 -2.234375 7.488281 -2.363281 7.90625 -2.625 C 8.320312 -2.882812 8.53125 -3.234375 8.53125 -3.671875 C 8.53125 -3.984375 8.40625 -4.242188 8.15625 -4.453125 C 7.914062 -4.660156 7.597656 -4.828125 7.203125 -4.953125 C 6.816406 -5.085938 6.296875 -5.226562 5.640625 -5.375 C 4.628906 -5.613281 3.800781 -5.851562 3.15625 -6.09375 C 2.507812 -6.332031 1.953125 -6.71875 1.484375 -7.25 C 1.023438 -7.789062 0.796875 -8.503906 0.796875 -9.390625 C 0.796875 -10.160156 1.003906 -10.859375 1.421875 -11.484375 C 1.835938 -12.109375 2.46875 -12.601562 3.3125 -12.96875 C 4.15625 -13.34375 5.1875 -13.53125 6.40625 -13.53125 C 7.25 -13.53125 8.078125 -13.425781 8.890625 -13.21875 C 9.703125 -13.019531 10.410156 -12.726562 11.015625 -12.34375 L 10.0625 -10.015625 C 8.84375 -10.710938 7.617188 -11.0625 6.390625 -11.0625 C 5.523438 -11.0625 4.882812 -10.921875 4.46875 -10.640625 C 4.0625 -10.359375 3.859375 -9.988281 3.859375 -9.53125 C 3.859375 -9.082031 4.09375 -8.742188 4.5625 -8.515625 C 5.039062 -8.296875 5.769531 -8.078125 6.75 -7.859375 C 7.757812 -7.617188 8.585938 -7.378906 9.234375 -7.140625 C 9.878906 -6.898438 10.429688 -6.519531 10.890625 -6 C 11.359375 -5.476562 11.59375 -4.773438 11.59375 -3.890625 C 11.59375 -3.128906 11.378906 -2.4375 10.953125 -1.8125 C 10.523438 -1.1875 9.882812 -0.6875 9.03125 -0.3125 C 8.1875 0.0507812 7.160156 0.234375 5.953125 0.234375 Z M 5.953125 0.234375 "/></g></g></g></svg>